Coordinates
version=1
nRows=11
nColumns=21
inDegrees=yes

Units are S.I. units (second, meters, Newtons, ...)
If the header above contains a line with 'inDegrees', this indicates whether rotational values are in degrees (yes) or radians (no).

endheader
time	sternoclavicular_r2	sternoclavicular_r3	unrotscap_r3	unrotscap_r2	acromioclavicular_r2	acromioclavicular_r3	acromioclavicular_r1	unrothum_r1	unrothum_r3	unrothum_r2	elv_angle	shoulder_elev	shoulder1_r2	shoulder_rot	elbow_flexion	pro_sup	deviation	flexion	wrist_hand_r1	wrist_hand_r3
      5.05050505	     -0.00113093	      0.00047901	     -0.00047901	      0.00113093	     -0.00022899	      0.00185062	      0.00083184	     -0.00083184	     -0.00185062	      0.00022899	     33.79836104	      0.00467325	    -33.79836104	      7.33372727	    116.76183429	      0.00000000	      0.00000000	     -0.00000000	     -0.00000000	      0.00000000
      5.15151515	     -0.00120037	      0.00050842	     -0.00050842	      0.00120037	     -0.00024305	      0.00196424	      0.00088291	     -0.00088291	     -0.00196424	      0.00024305	     32.92677253	      0.00496018	    -32.92677253	      7.93002032	    116.42445485	      0.00000000	      0.00000000	     -0.00000000	     -0.00000000	      0.00000000
      5.25252525	     -0.00127691	      0.00054084	     -0.00054084	      0.00127691	     -0.00025855	      0.00208950	      0.00093922	     -0.00093922	     -0.00208950	      0.00025855	     32.07645530	      0.00527648	    -32.07645530	      8.51221320	    116.09048031	      0.00000000	      0.00000000	     -0.00000000	     -0.00000000	      0.00000000
      5.35353535	     -0.00121551	      0.00051483	     -0.00051483	      0.00121551	     -0.00024612	      0.00198902	      0.00089405	     -0.00089405	     -0.00198902	      0.00024612	     31.24890154	      0.00502274	    -31.24890154	      9.07951727	    115.75903060	      0.00000000	      0.00000000	     -0.00000000	     -0.00000000	      0.00000000
      5.45454545	     -0.00117313	      0.00049688	     -0.00049688	      0.00117313	     -0.00023753	      0.00191967	      0.00086288	     -0.00086288	     -0.00191967	      0.00023753	     30.44631370	      0.00484761	    -30.44631370	      9.62892599	    115.43483975	      0.00000000	      0.00000000	     -0.00000000	     -0.00000000	      0.00000000
      5.55555556	     -0.00160425	      0.00067948	     -0.00067948	      0.00160425	     -0.00032483	      0.00262514	      0.00117998	     -0.00117998	     -0.00262514	      0.00032483	     28.89693895	      0.00662910	    -28.89693895	     10.16668250	    115.11330670	      0.00000000	      0.00000000	     -0.00000000	     -0.00000000	      0.00000000
      5.65656566	     -0.00179175	      0.00075890	     -0.00075890	      0.00179175	     -0.00036279	      0.00293197	      0.00131790	     -0.00131790	     -0.00293197	      0.00036279	     27.26942276	      0.00740391	    -27.26942276	     10.68793391	    114.79866480	      0.00000000	      0.00000000	     -0.00000000	     -0.00000000	      0.00000000
      5.75757576	     -0.00203377	      0.00086141	     -0.00086141	      0.00203377	     -0.00041180	      0.00332799	      0.00149591	     -0.00149591	     -0.00332799	      0.00041180	     25.55030166	      0.00840398	    -25.55030166	     11.19317115	    114.49017448	      0.00000000	      0.00000000	     -0.00000000	     -0.00000000	      0.00000000
      5.85858586	     -0.00236548	      0.00100191	     -0.00100191	      0.00236548	     -0.00047896	      0.00387080	      0.00173990	     -0.00173990	     -0.00387080	      0.00047896	     23.71605899	      0.00977468	    -23.71605899	     11.68363221	    114.18818267	      0.00000000	      0.00000000	     -0.00000000	     -0.00000000	      0.00000000
      5.95959596	     -3.93850425	      1.66816451	     -1.66816451	      3.93850425	     -0.79746700	      6.44484775	      2.89691471	     -2.89691471	     -6.44484775	      0.79746700	    -61.82520829	     16.27477448	     61.82520829	     16.51183233	    118.72019978	      0.00000000	      0.00000000	     -0.00000000	     -0.00000000	      0.00000000
      6.06060606	     -3.80639777	      1.61221044	     -1.61221044	      3.80639777	     -0.77071812	      6.22867275	      2.79974553	     -2.79974553	     -6.22867275	      0.77071812	    -62.81901594	     15.72888116	     62.81901594	     16.55177787	    118.42392268	      0.00000000	      0.00000000	     -0.00000000	     -0.00000000	      0.00000000
